<svg width="25" height="25" viewBox="0 0 25 25" fill="none" xmlns="http://www.w3.org/2000/svg">
<path d="M24.8116 15.0744C24.2913 17.615 22.998 19.9326 21.1088 21.7096C19.2197 23.4865 16.8273 24.6358 14.2593 25V22.4564C16.156 22.1182 17.9156 21.2427 19.3292 19.9339C20.7428 18.625 21.7509 16.938 22.2338 15.0731L24.8116 15.0744ZM2.76745 15.0744C3.24508 16.9177 4.23605 18.5876 5.62521 19.8902C7.01437 21.1927 8.74467 22.0743 10.615 22.4325V24.9824C8.07235 24.595 5.70961 23.4373 3.84544 21.6654C1.98126 19.8935 0.705328 17.5927 0.189689 15.0731H2.76745V15.0744ZM20.0379 11.3048V13.817H16.2693C15.6354 13.8168 15.0249 14.0562 14.5601 14.4871C14.0954 14.9181 13.8107 15.5088 13.7631 16.1408L13.7568 16.3292V20.0975H11.2444V16.3292C11.2446 15.6954 11.0052 15.085 10.5742 14.6202C10.1432 14.1555 9.55248 13.8708 8.92041 13.8233L8.73197 13.817H4.96332V11.3048H20.0379ZM12.5006 0C19.0141 0 24.3706 4.9578 25 11.3048H22.4725C22.1659 8.87667 20.9838 6.64381 19.1478 5.02522C17.3119 3.40662 14.9483 2.51354 12.5006 2.51354C10.053 2.51354 7.6894 3.40662 5.85344 5.02522C4.01749 6.64381 2.83532 8.87667 2.52877 11.3048H0C0.630621 4.9578 5.98714 0 12.5006 0Z" fill="#8A8A8A"/>
</svg>
