<svg width="160" height="157" viewBox="0 0 160 157" fill="none" xmlns="http://www.w3.org/2000/svg">
<g clip-path="url(#clip0_3925_148691)">
<rect width="159.304" height="155.5" transform="translate(0 0.549805)" fill="white"/>
<path d="M101.136 35.5202H58.2107C57.2325 35.5214 56.2947 35.9105 55.603 36.6022C54.9113 37.2939 54.5222 38.2317 54.521 39.2099V134.612L54.0291 134.762L43.4988 137.987C42.9997 138.139 42.4607 138.087 42 137.842C41.5393 137.597 41.1946 137.18 41.0415 136.681L9.71868 34.3666C9.56625 33.8675 9.6182 33.3284 9.86312 32.8676C10.108 32.4068 10.5259 32.0621 11.0248 31.9093L27.252 26.9406L74.2952 12.541L90.5222 7.57229C90.7692 7.49629 91.0287 7.46973 91.2859 7.49414C91.5432 7.51854 91.793 7.59344 92.0213 7.71453C92.2495 7.83561 92.4517 8.00053 92.6161 8.19982C92.7805 8.39912 92.9041 8.62888 92.9796 8.87597L100.986 35.0283L101.136 35.5202Z" fill="#F2F2F2"/>
<path d="M110.502 35.0294L100.852 3.50981C100.692 2.98463 100.429 2.49624 100.08 2.07254C99.7305 1.64883 99.3011 1.29813 98.8161 1.04046C98.3312 0.782785 97.8002 0.623196 97.2535 0.570816C96.7068 0.518435 96.1552 0.574289 95.6301 0.735181L72.8158 7.71848L25.7751 22.1205L2.96071 29.1062C1.90087 29.4317 1.01346 30.1643 0.49325 31.1434C-0.0269581 32.1224 -0.137458 33.2679 0.186011 34.3283L33.1667 142.049C33.4294 142.905 33.9597 143.654 34.6795 144.187C35.3993 144.72 36.2709 145.007 37.1663 145.008C37.5808 145.008 37.9929 144.946 38.3888 144.824L54.028 140.037L54.52 139.885V139.37L54.028 139.521L38.2437 144.354C37.3082 144.639 36.2978 144.542 35.4341 144.083C34.5704 143.624 33.9239 142.841 33.6365 141.907L0.658388 34.1832C0.515989 33.72 0.46636 33.2333 0.512339 32.7509C0.558318 32.2684 0.699 31.7999 0.926337 31.3719C1.15367 30.9439 1.4632 30.565 1.83718 30.2569C2.21117 29.9487 2.64226 29.7174 3.10579 29.576L25.9202 22.5903L72.961 8.19076L95.7754 1.205C96.1269 1.09771 96.4924 1.043 96.86 1.04266C97.6489 1.04443 98.4165 1.29876 99.0504 1.76839C99.6842 2.23803 100.151 2.89829 100.383 3.65248L109.988 35.0294L110.14 35.5213H110.652L110.502 35.0294Z" fill="#3F3D56"/>
<path d="M30.1804 31.9912C29.7063 31.9909 29.2448 31.8386 28.8636 31.5567C28.4823 31.2749 28.2015 30.8783 28.0622 30.4251L24.8939 20.0764C24.8088 19.7984 24.7792 19.5064 24.807 19.217C24.8347 18.9276 24.9192 18.6465 25.0556 18.3897C25.192 18.133 25.3776 17.9056 25.6019 17.7206C25.8262 17.5356 26.0847 17.3966 26.3627 17.3116L69.6397 4.06231C70.2011 3.89099 70.8076 3.94942 71.3259 4.22476C71.8443 4.50011 72.2323 4.96988 72.4047 5.53096L75.573 15.8798C75.7442 16.4412 75.6857 17.0476 75.4103 17.566C75.135 18.0843 74.6653 18.4723 74.1043 18.6448L30.8272 31.894C30.6176 31.9583 30.3996 31.9911 30.1804 31.9912Z" fill="#FFCC2A"/>
<path d="M46.7711 11.6076C49.4881 11.6076 51.6907 9.40509 51.6907 6.6881C51.6907 3.97111 49.4881 1.76855 46.7711 1.76855C44.0541 1.76855 41.8516 3.97111 41.8516 6.6881C41.8516 9.40509 44.0541 11.6076 46.7711 11.6076Z" fill="#FFCC2A"/>
<path d="M46.7754 9.80366C48.4958 9.80366 49.8906 8.40894 49.8906 6.68845C49.8906 4.96797 48.4958 3.57324 46.7754 3.57324C45.0549 3.57324 43.6602 4.96797 43.6602 6.68845C43.6602 8.40894 45.0549 9.80366 46.7754 9.80366Z" fill="white"/>
<path d="M148.231 143.751H65.0908C64.5365 143.75 64.005 143.53 63.6131 143.138C63.2211 142.746 63.0006 142.214 63 141.66V42.039C63.0006 41.4847 63.2211 40.9533 63.6131 40.5613C64.005 40.1693 64.5365 39.9489 65.0908 39.9482H148.231C148.785 39.9489 149.317 40.1694 149.709 40.5613C150.101 40.9533 150.321 41.4847 150.322 42.039V141.66C150.321 142.214 150.101 142.746 149.709 143.138C149.317 143.53 148.785 143.75 148.231 143.751Z" fill="#E6E6E6"/>
<path d="M109.987 35.0283H58.209C57.1004 35.0299 56.0377 35.471 55.2538 36.2548C54.47 37.0387 54.0289 38.1014 54.0273 39.2099V139.519L54.5193 139.369V39.2099C54.5205 38.2317 54.9096 37.294 55.6013 36.6023C56.293 35.9106 57.2308 35.5215 58.209 35.5203H110.14L109.987 35.0283ZM155.124 35.0283H58.209C57.1004 35.0299 56.0377 35.471 55.2538 36.2548C54.47 37.0387 54.0289 38.1014 54.0273 39.2099V151.868C54.0289 152.976 54.47 154.039 55.2538 154.823C56.0377 155.607 57.1004 156.048 58.209 156.049H155.124C156.233 156.048 157.295 155.607 158.079 154.823C158.863 154.039 159.304 152.976 159.306 151.868V39.2099C159.304 38.1014 158.863 37.0387 158.079 36.2548C157.295 35.471 156.233 35.0299 155.124 35.0283ZM158.814 151.868C158.813 152.846 158.423 153.784 157.732 154.475C157.04 155.167 156.102 155.556 155.124 155.557H58.209C57.2308 155.556 56.293 155.167 55.6013 154.475C54.9096 153.784 54.5205 152.846 54.5193 151.868V39.2099C54.5205 38.2317 54.9096 37.294 55.6013 36.6023C56.293 35.9106 57.2308 35.5215 58.209 35.5203H155.124C156.102 35.5215 157.04 35.9106 157.732 36.6023C158.423 37.294 158.813 38.2317 158.814 39.2099V151.868Z" fill="#3F3D56"/>
<path d="M129.298 45.8522H84.038C83.4511 45.8515 82.8884 45.618 82.4733 45.203C82.0583 44.788 81.8249 44.2253 81.8242 43.6384V32.8154C81.8249 32.2284 82.0583 31.6657 82.4734 31.2507C82.8884 30.8357 83.4511 30.6022 84.038 30.6016H129.298C129.885 30.6022 130.447 30.8357 130.863 31.2507C131.278 31.6657 131.511 32.2284 131.512 32.8154V43.6384C131.511 44.2253 131.278 44.788 130.863 45.203C130.447 45.618 129.885 45.8515 129.298 45.8522Z" fill="#FFCC2A"/>
<path d="M106.666 31.3398C109.383 31.3398 111.585 29.1373 111.585 26.4203C111.585 23.7033 109.383 21.5007 106.666 21.5007C103.949 21.5007 101.746 23.7033 101.746 26.4203C101.746 29.1373 103.949 31.3398 106.666 31.3398Z" fill="#FFCC2A"/>
<path d="M106.664 29.4168C108.319 29.4168 109.661 28.0752 109.661 26.4203C109.661 24.7654 108.319 23.4238 106.664 23.4238C105.01 23.4238 103.668 24.7654 103.668 26.4203C103.668 28.0752 105.01 29.4168 106.664 29.4168Z" fill="white"/>
</g>
<defs>
<clipPath id="clip0_3925_148691">
<rect width="159.304" height="155.5" fill="white" transform="translate(0 0.549805)"/>
</clipPath>
</defs>
</svg>
