<svg width="24" height="24" viewBox="0 0 24 24" fill="none" xmlns="http://www.w3.org/2000/svg">
<path d="M11.11 4.049C11.3736 4.01983 11.6149 3.88713 11.7806 3.68009C11.9464 3.47305 12.0232 3.20863 11.994 2.945C11.9648 2.68138 11.8321 2.44014 11.6251 2.27436C11.418 2.10858 11.1536 2.03183 10.89 2.061C5.888 2.614 2 6.852 2 12C2 17.523 6.477 22 12 22C17.146 22 21.383 18.113 21.939 13.114C21.9682 12.8504 21.8914 12.586 21.7256 12.3789C21.5599 12.1719 21.3186 12.0392 21.055 12.01C20.7914 11.9808 20.527 12.0576 20.3199 12.2234C20.1129 12.3891 19.9802 12.6304 19.951 12.894C19.7207 14.9241 18.7225 16.7892 17.161 18.1068C15.5996 19.4245 13.5932 20.0949 11.5533 19.9806C9.51335 19.8662 7.59445 18.9758 6.19001 17.492C4.78558 16.0081 4.00202 14.0431 4 12C4.00006 10.0323 4.72519 8.13367 6.03681 6.6669C7.34844 5.20013 9.15456 4.26813 11.11 4.049ZM14.767 2.391C14.5143 2.32724 14.2466 2.36467 14.0211 2.49533C13.7955 2.62599 13.6299 2.83956 13.5595 3.09052C13.4891 3.34149 13.5195 3.61003 13.6442 3.83893C13.7688 4.06784 13.978 4.23902 14.227 4.316C14.514 4.397 14.796 4.494 15.069 4.606C15.3146 4.70639 15.59 4.7051 15.8346 4.60242C16.0793 4.49975 16.2731 4.30409 16.3735 4.0585C16.4739 3.81291 16.4726 3.5375 16.3699 3.29286C16.2672 3.04822 16.0716 2.85439 15.826 2.754C15.4802 2.61296 15.1266 2.49176 14.767 2.391ZM17.349 4.691C17.4378 4.59428 17.5449 4.516 17.6639 4.46064C17.783 4.40528 17.9119 4.37391 18.0431 4.36834C18.1743 4.36277 18.3053 4.3831 18.4287 4.42817C18.552 4.47323 18.6653 4.54216 18.762 4.631C18.974 4.825 19.177 5.028 19.371 5.239C19.5503 5.43447 19.6446 5.69315 19.6331 5.95814C19.6217 6.22313 19.5055 6.47272 19.31 6.652C19.1145 6.83129 18.8559 6.92558 18.5909 6.91414C18.3259 6.9027 18.0763 6.78647 17.897 6.591C17.7421 6.42206 17.5799 6.25991 17.411 6.105C17.3141 6.0163 17.2357 5.90939 17.1802 5.79037C17.1246 5.67135 17.0931 5.54256 17.0873 5.41135C17.0816 5.28013 17.1017 5.14907 17.1466 5.02564C17.1915 4.90222 17.2603 4.78785 17.349 4.691ZM11 6C11.2652 6 11.5196 6.10536 11.7071 6.2929C11.8946 6.48043 12 6.73479 12 7V12H15C15.2652 12 15.5196 12.1054 15.7071 12.2929C15.8946 12.4804 16 12.7348 16 13C16 13.2652 15.8946 13.5196 15.7071 13.7071C15.5196 13.8946 15.2652 14 15 14H11C10.7348 14 10.4804 13.8946 10.2929 13.7071C10.1054 13.5196 10 13.2652 10 13V7C10 6.73479 10.1054 6.48043 10.2929 6.2929C10.4804 6.10536 10.7348 6 11 6ZM19.94 7.623C20.1855 7.52264 20.4607 7.52389 20.7053 7.62647C20.9498 7.72905 21.1436 7.92456 21.244 8.17C21.3858 8.51711 21.5077 8.87201 21.609 9.233C21.6484 9.36058 21.6619 9.49477 21.6487 9.62765C21.6354 9.76053 21.5957 9.88941 21.5318 10.0067C21.4679 10.124 21.3812 10.2272 21.2768 10.3105C21.1723 10.3937 21.0523 10.4551 20.9237 10.4912C20.7951 10.5273 20.6606 10.5372 20.5282 10.5205C20.3957 10.5037 20.2679 10.4606 20.1523 10.3936C20.0368 10.3267 19.9358 10.2373 19.8554 10.1307C19.7749 10.0241 19.7167 9.90248 19.684 9.773C19.6031 9.48573 19.5059 9.20328 19.393 8.927C19.2926 8.68167 19.2937 8.4065 19.3961 8.16198C19.4985 7.91746 19.6937 7.7236 19.939 7.623H19.94Z" fill="#FFCC2A"/>
</svg>
