<svg width="66" height="129" viewBox="0 0 66 129" fill="none" xmlns="http://www.w3.org/2000/svg">
<path d="M-8.69 95.8969C-8.69 90.501 -4.39459 86.127 0.905 86.127C6.20459 86.127 10.5 90.501 10.5 95.8969L10.5 106.327" stroke="black" stroke-width="10.1" stroke-linejoin="round"/>
<path d="M-23.1653 37.4775C-23.1653 45.1939 -16.9853 51.4492 -9.36193 51.4492C-1.73856 51.4492 4.44141 45.1939 4.44141 37.4775C4.44141 29.7612 -1.73856 23.5059 -9.36193 23.5059C-16.9853 23.5059 -23.1653 29.7612 -23.1653 37.4775Z" stroke="#FFF5BB" stroke-width="10.1" stroke-linejoin="round"/>
<path d="M-9.02802 66.9367C8.07716 66.9367 21.9453 53.2956 21.9453 36.4683C21.9453 19.6411 8.07717 6 -9.02802 6C-26.1332 6 -40.0014 19.6411 -40.0014 36.4683" stroke="url(#paint0_linear_3925_148158)" stroke-width="10.1" stroke-linejoin="round"/>
<path d="M10.4983 118.782L10.4983 131.543C10.4983 140.114 17.1299 147.062 25.3117 147.062C33.4934 147.062 40.125 140.114 40.125 131.543L40.125 106.021C40.125 97.4498 33.4934 90.502 25.3117 90.502" stroke="url(#paint1_linear_3925_148158)" stroke-width="10.1" stroke-linejoin="round"/>
<path d="M31.7122 67.2734C47.3296 67.2734 59.9922 79.8798 59.9922 95.4309L59.9922 145.043" stroke="url(#paint2_linear_3925_148158)" stroke-width="10.1" stroke-linejoin="round"/>
<path d="M59.9922 51.2822C58.5619 51.2822 40.5443 51.2822 31.7122 51.2822" stroke="#FFF5BB" stroke-width="10.1" stroke-linejoin="round"/>
<path d="M57.9688 10.1992C54.6021 10.2056 51.2354 10.212 47.8687 10.2185" stroke="#FFF5BB" stroke-width="10.1" stroke-linejoin="round"/>
<defs>
<linearGradient id="paint0_linear_3925_148158" x1="21.9453" y1="36.4683" x2="-40.0014" y2="36.4683" gradientUnits="userSpaceOnUse">
<stop stop-color="#F2F2F2"/>
<stop offset="1" stop-color="#F2F2F2" stop-opacity="0"/>
</linearGradient>
<linearGradient id="paint1_linear_3925_148158" x1="40.125" y1="118.782" x2="10.4983" y2="118.782" gradientUnits="userSpaceOnUse">
<stop stop-color="#F2F2F2"/>
<stop offset="1" stop-color="#F2F2F2" stop-opacity="0"/>
</linearGradient>
<linearGradient id="paint2_linear_3925_148158" x1="59.9922" y1="106.158" x2="31.7122" y2="106.158" gradientUnits="userSpaceOnUse">
<stop stop-color="#F2F2F2"/>
<stop offset="1" stop-color="#F2F2F2" stop-opacity="0"/>
</linearGradient>
</defs>
</svg>
