<svg width="67" height="129" viewBox="0 0 67 129" fill="none" xmlns="http://www.w3.org/2000/svg">
<path d="M74.6822 95.8969C74.6822 90.501 70.3868 86.127 65.0872 86.127C59.7876 86.127 55.4922 90.501 55.4922 95.8969L55.4922 106.327" stroke="black" stroke-width="10.1" stroke-linejoin="round"/>
<path d="M89.1574 37.4775C89.1574 45.1939 82.9775 51.4492 75.3541 51.4492C67.7307 51.4492 61.5508 45.1939 61.5508 37.4775C61.5508 29.7612 67.7307 23.5059 75.3541 23.5059C82.9775 23.5059 89.1574 29.7612 89.1574 37.4775Z" stroke="#FFF5BB" stroke-width="10.1" stroke-linejoin="round"/>
<path d="M75.0202 66.9367C57.915 66.9367 44.0469 53.2956 44.0469 36.4683C44.0469 19.6411 57.915 6 75.0202 6C92.1254 6 105.994 19.6411 105.994 36.4683" stroke="url(#paint0_linear_3925_148166)" stroke-width="10.1" stroke-linejoin="round"/>
<path d="M55.4939 118.782L55.4939 131.543C55.4939 140.114 48.8622 147.062 40.6805 147.062C32.4988 147.062 25.8672 140.114 25.8672 131.543L25.8672 106.021C25.8672 97.4498 32.4988 90.502 40.6805 90.502" stroke="url(#paint1_linear_3925_148166)" stroke-width="10.1" stroke-linejoin="round"/>
<path d="M34.28 67.2734C18.6626 67.2734 6 79.8798 6 95.4309L6 145.043" stroke="url(#paint2_linear_3925_148166)" stroke-width="10.1" stroke-linejoin="round"/>
<path d="M6 51.2822C7.43032 51.2822 25.4479 51.2822 34.28 51.2822" stroke="#FFF5BB" stroke-width="10.1" stroke-linejoin="round"/>
<path d="M8.02344 10.1992C11.3901 10.2056 14.7568 10.212 18.1234 10.2185" stroke="#FFF5BB" stroke-width="10.1" stroke-linejoin="round"/>
<defs>
<linearGradient id="paint0_linear_3925_148166" x1="44.0469" y1="36.4683" x2="105.994" y2="36.4683" gradientUnits="userSpaceOnUse">
<stop stop-color="#F2F2F2"/>
<stop offset="1" stop-color="#F2F2F2" stop-opacity="0"/>
</linearGradient>
<linearGradient id="paint1_linear_3925_148166" x1="25.8672" y1="118.782" x2="55.4939" y2="118.782" gradientUnits="userSpaceOnUse">
<stop stop-color="#F2F2F2"/>
<stop offset="1" stop-color="#F2F2F2" stop-opacity="0"/>
</linearGradient>
<linearGradient id="paint2_linear_3925_148166" x1="6" y1="106.158" x2="34.28" y2="106.158" gradientUnits="userSpaceOnUse">
<stop stop-color="#F2F2F2"/>
<stop offset="1" stop-color="#F2F2F2" stop-opacity="0"/>
</linearGradient>
</defs>
</svg>
