<svg width="13" height="22" viewBox="0 0 13 22" fill="none" xmlns="http://www.w3.org/2000/svg">
<path d="M11.2095 20.1627C5.8916 17.3182 -2.96339 11.555 4.16017 11.2582C13.0646 10.8872 10.4668 9.40313 4.16017 6.06396" stroke="#8A8A8A" stroke-width="1.8" stroke-linecap="round"/>
<path d="M10.9586 14.2266C9.83041 14.2266 8.91797 15.139 8.91797 16.2672C8.91797 17.7976 10.9586 20.0569 10.9586 20.0569C10.9586 20.0569 12.9992 17.7976 12.9992 16.2672C12.9992 15.139 12.0867 14.2266 10.9586 14.2266ZM10.9586 16.996C10.7653 16.996 10.5799 16.9192 10.4432 16.7825C10.3066 16.6458 10.2298 16.4605 10.2298 16.2672C10.2298 16.0739 10.3066 15.8885 10.4432 15.7518C10.5799 15.6152 10.7653 15.5384 10.9586 15.5384C11.1519 15.5384 11.3372 15.6152 11.4739 15.7518C11.6106 15.8885 11.6874 16.0739 11.6874 16.2672C11.6874 16.4605 11.6106 16.6458 11.4739 16.7825C11.3372 16.9192 11.1519 16.996 10.9586 16.996Z" fill="#8A8A8A"/>
<path d="M4.28279 0.127686C3.15463 0.127686 2.24219 1.04013 2.24219 2.16829C2.24219 3.69874 4.28279 5.95798 4.28279 5.95798C4.28279 5.95798 6.32339 3.69874 6.32339 2.16829C6.32339 1.04013 5.41095 0.127686 4.28279 0.127686ZM4.28279 2.89708C4.0895 2.89708 3.90413 2.82029 3.76746 2.68362C3.63079 2.54695 3.554 2.36158 3.554 2.16829C3.554 1.975 3.63079 1.78963 3.76746 1.65296C3.90413 1.51628 4.0895 1.4395 4.28279 1.4395C4.47608 1.4395 4.66145 1.51628 4.79812 1.65296C4.9348 1.78963 5.01158 1.975 5.01158 2.16829C5.01158 2.36158 4.9348 2.54695 4.79812 2.68362C4.66145 2.82029 4.47608 2.89708 4.28279 2.89708Z" fill="#8A8A8A"/>
</svg>
