<svg width="142" height="83" viewBox="0 0 142 83" fill="none" xmlns="http://www.w3.org/2000/svg">
<g clip-path="url(#clip0_6981_10324)">
<g filter="url(#filter0_f_6981_10324)">
<path d="M111.26 79.2333C117.26 77.0976 128.102 71.5324 131.906 67.6188C136.311 63.5019 126.569 59.6099 125.406 59.0085C124.243 58.4071 67.3338 33.543 57.4341 29.7481C47.5344 25.9533 17.2819 36.448 10.0514 40.9368C4.15757 44.5957 8.55405 46.7668 9.39366 47.3839C10.2333 48.0009 57.7776 71.5559 74.799 78.6228C87.6893 83.9746 99.4821 83.4253 111.26 79.2333Z" fill="black" fill-opacity="0.2"/>
</g>
<path fill-rule="evenodd" clip-rule="evenodd" d="M73.156 68.8312C72.2534 67.7515 71.4232 66.4971 70.7174 65.1013C70.0663 63.8136 69.5746 62.5112 69.2391 61.2429L65.6274 54.2458L71.4829 51.175L71.483 51.1752C71.5192 51.1555 71.5557 51.1363 71.5925 51.1175C75.083 49.3418 80.3504 52.7235 83.3575 58.6708C86.3646 64.6181 85.9728 70.8789 82.4824 72.6546C82.4588 72.6666 82.4351 72.6784 82.4114 72.6899L76.6967 75.6908L73.156 68.8312Z" fill="black"/>
<ellipse cx="7.09416" cy="12.0519" rx="7.09416" ry="12.0519" transform="matrix(-0.890882 0.453219 0.451443 0.892815 72.1353 50.9631)" fill="black"/>
<g filter="url(#filter1_i_6981_10324)">
<ellipse cx="5.32087" cy="9.03932" rx="5.32087" ry="9.03932" transform="matrix(-0.890882 0.453219 0.451443 0.892815 71.7173 54.4749)" fill="url(#paint0_linear_6981_10324)"/>
</g>
<g filter="url(#filter2_di_6981_10324)">
<path fill-rule="evenodd" clip-rule="evenodd" d="M70.9593 58.5109C71.7467 58.9255 72.5345 59.5593 73.2573 60.3704L71.8379 63.1402C71.6206 62.9093 71.39 62.7192 71.1572 62.5773L70.9593 58.5109ZM71.4033 67.6334C71.7437 67.7484 72.0733 67.7491 72.3562 67.6124L74.8135 71.4394C74.6993 71.5228 74.5784 71.5973 74.4509 71.6622C73.6152 72.0873 72.6163 72.0385 71.5967 71.6072L71.4033 67.6334ZM71.2784 71.4605L71.0854 67.4945C70.8108 67.3478 70.5365 67.1327 70.2807 66.8609L68.8911 69.5727C69.6422 70.4087 70.4622 71.0535 71.2784 71.4605ZM70.8381 62.4137L70.6405 58.355C69.5802 57.8767 68.5363 57.807 67.6684 58.2485C67.4264 58.3717 67.2082 58.5294 67.0142 58.7175L69.4923 62.5767C69.5668 62.505 69.6504 62.4448 69.7431 62.3977C70.0639 62.2344 70.4468 62.2512 70.8381 62.4137ZM67.1204 66.9594C67.5682 67.8451 68.0966 68.6393 68.6711 69.3202L70.0611 66.6077C69.8656 66.3634 69.6856 66.0849 69.5304 65.7781C69.5116 65.7409 69.4934 65.7037 69.4757 65.6665L66.8974 66.496C66.9681 66.6506 67.0424 66.8052 67.1204 66.9594ZM72.0575 63.3935L73.4765 60.6242C74.0401 61.2975 74.5585 62.0802 74.999 62.9513C75.0881 63.1276 75.1725 63.3044 75.2521 63.4812L72.637 64.3226C72.621 64.2892 72.6047 64.2559 72.5878 64.2226C72.4328 63.916 72.2528 63.6376 72.0575 63.3935ZM66.7709 66.2097C66.2396 64.9665 65.9438 63.7239 65.8765 62.5937L69.0602 64.2366C69.0979 64.6 69.1942 64.9888 69.3505 65.3799L66.7709 66.2097ZM72.763 64.6089C72.9503 65.0742 73.0528 65.5366 73.0727 65.9571L76.255 67.5993C76.2241 66.4155 75.9343 65.0932 75.3769 63.768L72.763 64.6089ZM76.2564 67.9501L73.0697 66.3057C73.037 66.7844 72.8832 67.1848 72.6127 67.4365L75.0552 71.2404C75.8256 70.5288 76.2311 69.3514 76.2564 67.9501ZM65.8628 62.2365L69.042 63.8771C69.0441 63.4709 69.1274 63.1112 69.2894 62.8363L66.7964 58.9537C66.1555 59.7284 65.84 60.8902 65.8628 62.2365Z" fill="#555454"/>
</g>
<path fill-rule="evenodd" clip-rule="evenodd" d="M65.6311 54.1196L71.4866 51.0488L71.4891 51.0537C71.527 51.033 71.5654 51.0127 71.6041 50.993C75.0945 49.2173 80.3618 52.599 83.369 58.5463C86.3761 64.4936 85.9843 70.7544 82.4938 72.5302C82.4359 72.5596 82.3776 72.5876 82.3188 72.6142L76.7004 75.5646L73.1495 68.6853C72.2539 67.6105 71.43 66.3634 70.7289 64.9769C70.0825 63.6985 69.5932 62.4056 69.2579 61.1459L65.6311 54.1196Z" fill="black"/>
<path d="M64.8605 68.1598C67.8653 74.1024 73.1308 77.4803 76.6213 75.7046C80.1118 73.9289 80.5054 67.672 77.5006 61.7294C74.4958 55.7868 69.0612 52.0892 65.5707 53.8649C62.0802 55.6406 61.8556 62.2172 64.8605 68.1598Z" fill="#2D2C2C"/>
<g filter="url(#filter3_i_6981_10324)">
<ellipse cx="4.98673" cy="8.71737" rx="4.98673" ry="8.71737" transform="matrix(-0.886357 0.463179 0.438628 0.898638 71.7053 54.8083)" fill="url(#paint1_linear_6981_10324)"/>
</g>
<g filter="url(#filter4_di_6981_10324)">
<path fill-rule="evenodd" clip-rule="evenodd" d="M68.0356 67.054C69.4959 69.7706 71.7944 71.3773 73.5006 70.9154L72.0128 67.9213C71.274 67.9378 70.386 67.2906 69.7478 66.2474L68.0356 67.054ZM67.6272 66.2134C66.42 63.4466 66.5142 60.6498 67.813 59.4698L69.3023 62.4668C68.8657 63.0999 68.8648 64.2496 69.3293 65.4116L67.6272 66.2134ZM72.5943 63.8736C71.924 62.6493 70.9078 61.8943 70.0998 61.9798L68.6206 59.0032C70.3827 58.4465 72.8186 60.168 74.2943 63.0728L72.5943 63.8736ZM72.973 64.7282L74.6832 63.9226C75.8011 66.6572 75.6507 69.3741 74.3256 70.4838L72.8477 67.5098C73.3111 66.9389 73.362 65.8562 72.973 64.7282Z" fill="#FDD146"/>
</g>
<path fill-rule="evenodd" clip-rule="evenodd" d="M19.5183 33.7858L24.7308 32.1633L24.7311 32.1645C24.7627 32.1541 24.7945 32.1442 24.8265 32.1347C27.9255 31.212 31.7021 34.7434 33.2618 40.0223C34.8214 45.3012 33.5735 50.3285 30.4744 51.2512C30.4438 51.2603 30.4131 51.269 30.3824 51.2772L25.3256 52.8542L23.4713 46.7656C22.8962 45.7519 22.4063 44.6061 22.0391 43.3635C21.7004 42.2168 21.494 41.082 21.4104 39.9986L19.5183 33.7858Z" fill="black"/>
<ellipse cx="5.859" cy="9.95164" rx="5.859" ry="9.95164" transform="matrix(-0.957727 0.285128 0.283553 0.959716 25.2812 32.0913)" fill="black"/>
<g filter="url(#filter5_i_6981_10324)">
<ellipse cx="4.39447" cy="7.46414" rx="4.39447" ry="7.46414" transform="matrix(-0.957727 0.285128 0.283553 0.959716 24.418 34.8789)" fill="url(#paint2_linear_6981_10324)"/>
</g>
<g filter="url(#filter6_di_6981_10324)">
<path fill-rule="evenodd" clip-rule="evenodd" d="M23.1905 38.0418C23.7707 38.4964 24.3184 39.1303 24.7866 39.8994L23.2223 41.9381C23.0785 41.7158 22.9175 41.5254 22.7474 41.3747L23.1905 38.0418ZM22.1963 45.5205C22.4569 45.6668 22.726 45.7179 22.9775 45.6492L24.4047 49.1223C24.3001 49.1727 24.1914 49.2149 24.0788 49.2484C23.3352 49.4698 22.5292 49.2801 21.7636 48.7755L22.1963 45.5205ZM21.5269 48.6086L21.9589 45.3591C21.7596 45.1995 21.5706 44.9854 21.4047 44.7288L19.8734 46.7244C20.358 47.5127 20.9263 48.1568 21.5269 48.6086ZM22.5124 41.1955L22.9547 37.8682C22.1659 37.3241 21.33 37.1134 20.5611 37.3424C20.3455 37.4065 20.1444 37.5025 19.9584 37.627L21.3989 41.1323C21.4705 41.0846 21.548 41.0478 21.6309 41.0231C21.9139 40.9388 22.2203 41.008 22.5124 41.1955ZM18.8224 44.3367C19.0548 45.1233 19.3663 45.8476 19.7322 46.4865L21.2639 44.4904C21.1414 44.2629 21.0365 44.0099 20.9561 43.7376C20.9463 43.7044 20.9369 43.6712 20.928 43.638L18.7103 43.9279C18.7447 44.0638 18.782 44.2001 18.8224 44.3367ZM23.3631 42.1765L24.927 40.1383C25.2845 40.7689 25.5892 41.4814 25.8175 42.2541C25.8638 42.4109 25.9061 42.5673 25.9446 42.7231L23.6958 43.0171C23.6879 42.9879 23.6796 42.9586 23.6709 42.9294C23.5905 42.657 23.4856 42.404 23.3631 42.1765ZM18.65 43.6765C18.4029 42.5875 18.347 41.5341 18.4601 40.606L20.803 42.4152C20.7797 42.7158 20.8001 43.0458 20.8689 43.3865L18.65 43.6765ZM23.7557 43.2685C23.8389 43.6746 23.8535 44.0657 23.8073 44.4104L26.1474 46.2175C26.2982 45.2514 26.2592 44.1342 26.0033 42.9747L23.7557 43.2685ZM26.0965 46.5028L23.7531 44.6932C23.6552 45.0781 23.4702 45.381 23.2122 45.545L24.6307 48.9968C25.3629 48.5339 25.8676 47.6377 26.0965 46.5028ZM18.502 40.3137L20.8416 42.1204C20.9035 41.7916 21.0241 41.5125 21.1958 41.3134L19.7465 37.7865C19.1115 38.3207 18.6832 39.2172 18.502 40.3137Z" fill="#555454"/>
</g>
<path fill-rule="evenodd" clip-rule="evenodd" d="M23.4694 46.9052C22.895 45.8923 22.4056 44.7475 22.0388 43.506C21.7004 42.3605 21.4941 41.2268 21.4103 40.1443L19.5179 33.9307L24.6876 32.3215C24.7333 32.3058 24.7795 32.291 24.8261 32.2771C27.9252 31.3545 31.7018 34.8859 33.2614 40.1648C34.8211 45.4437 33.5731 50.471 30.4741 51.3936C30.4632 51.3969 30.4522 51.4001 30.4413 51.4032L30.4414 51.4036L25.3253 52.9991L23.4694 46.9052Z" fill="black"/>
<ellipse cx="5.92409" cy="10.0622" rx="5.92409" ry="10.0622" transform="matrix(-0.957727 0.285128 0.283553 0.959716 25.293 31.9888)" fill="#2C2C2C"/>
<g filter="url(#filter7_i_6981_10324)">
<g filter="url(#filter8_i_6981_10324)">
<ellipse cx="4.12265" cy="7.207" rx="4.12265" ry="7.207" transform="matrix(-0.940504 0.33758 0.350296 0.937403 23.5039 35.8716)" fill="url(#paint3_linear_6981_10324)"/>
</g>
<g filter="url(#filter9_di_6981_10324)">
<path fill-rule="evenodd" clip-rule="evenodd" d="M19.2577 45.3006C20.1451 47.6765 21.8425 49.2866 23.301 49.1734L22.4214 46.5441C21.8192 46.4393 21.1772 45.8043 20.7765 44.8956L19.2577 45.3006ZM19.0102 44.5422C18.3394 42.1488 18.7419 39.9169 19.9462 39.1453L20.8282 41.7818C20.4049 42.235 20.2749 43.15 20.519 44.1399L19.0102 44.5422ZM23.4036 43.3708C22.9903 42.2812 22.2307 41.5242 21.5481 41.4864L20.6755 38.8781C22.2018 38.6763 24.02 40.4152 24.9 42.9718L23.4036 43.3708ZM23.6209 44.1372L25.1275 43.7355C25.7218 46.0932 25.2727 48.2505 24.0439 48.947L23.1737 46.3457C23.629 45.96 23.804 45.1 23.6209 44.1372Z" fill="#FDD146"/>
</g>
</g>
<g filter="url(#filter10_ii_6981_10324)">
<path fill-rule="evenodd" clip-rule="evenodd" d="M97.8576 25.4122C97.9167 25.4567 97.9791 25.4968 98.045 25.5305C98.2699 25.6453 98.4707 25.7237 98.6479 25.7621C100.901 26.2493 120.031 35.5628 124.293 39.4722C128.441 43.2766 128.338 45.6763 128.29 46.7903C128.283 46.9511 128.277 47.0852 128.286 47.1928C128.327 47.7295 128.376 48.8111 128.438 50.1874C128.474 50.9979 128.515 51.9106 128.562 52.8742L128.722 56.1483C128.726 56.3932 128.739 56.6427 128.753 56.8975C128.81 57.9793 128.872 59.1554 128.272 60.4766C127.532 62.1053 123.868 68.1233 105.006 75.0741C98.6023 77.4338 90.9362 75.5264 86.0289 73.7647C83.9926 73.1157 82.4433 72.4695 81.6769 72.1336C81.5594 72.0821 81.4662 71.9972 81.4032 71.8919C81.3858 71.8628 81.3582 71.8366 81.3273 71.8226C81.2807 71.8014 81.2517 71.7595 81.2452 71.7087C81.0337 70.0525 80.5204 67.7223 79.8229 65.4124C79.0616 63.0072 78.1041 60.6465 77.1064 59.1162C74.7233 55.461 69.8152 51.0489 66.1951 52.4994C62.0868 54.1455 62.7002 60.1395 62.8504 61.5706C62.8945 61.9915 62.9571 62.2705 63.019 62.5461C63.0892 62.8595 63.1585 63.1684 63.1986 63.6763C63.2008 63.7036 63.2011 63.7303 63.1997 63.7564C63.1984 63.7809 63.1975 63.8055 63.1991 63.8301C63.2044 63.9116 63.2087 64.0012 63.2118 64.1C63.2167 64.2579 63.0534 64.3633 62.9097 64.2977C62.8567 64.2735 62.7966 64.2735 62.7397 64.2862C62.6164 64.3136 62.4814 64.3033 62.3519 64.2449L29.2008 49.2704C29.025 49.191 28.8943 49.0347 28.8594 48.845C28.7298 48.1396 28.6917 47.3132 28.6492 46.3916L28.6492 46.3915C28.5317 43.8466 28.3808 40.5756 26.1774 37.1212C24.1635 33.9637 21.355 31.9455 18.938 32.8353C16.5209 33.7251 15.982 36.4014 15.9199 37.8804C15.8588 39.3328 16.0015 40.656 16.0843 41.4234C16.1176 41.7323 16.1412 41.9511 16.1379 42.0521C16.1264 42.4039 12.4442 39.5347 12.1606 38.387C11.2975 34.8938 10.9927 31.5983 11.1813 28.0009C11.2121 27.4124 11.3558 25.9229 11.4923 25.333C11.513 25.2434 11.5217 25.1518 11.5117 25.0604C11.3779 23.8354 11.5045 22.02 11.8033 21.2389C11.83 21.1691 11.8558 21.0956 11.883 21.0184C12.1993 20.1179 12.6934 18.7116 16.9241 16.5668C22.9316 13.5213 39.3563 6.59313 39.9963 6.41872C41.5086 6.00664 43.4738 6.05641 45.0647 6.09669C45.9981 6.12033 46.8028 6.14071 47.3114 6.06261C54.6604 4.9343 63.2729 5.53779 74.8501 10.6895C76.39 11.2567 77.9172 11.9149 79.4023 12.6786C83.1051 14.5826 86.2491 16.6421 88.8757 18.5521C91.9583 20.6765 94.348 22.6057 96.0619 23.9892L96.0619 23.9892L96.0619 23.9892C96.7781 24.5673 97.3762 25.0502 97.8576 25.4122Z" fill="url(#paint4_linear_6981_10324)"/>
</g>
<g filter="url(#filter11_ddi_6981_10324)">
<path d="M70.4515 40.5729C66.2616 39.0726 63.6817 33.6029 57.1318 27.3682C56.9717 27.2158 57.0132 26.9475 57.2141 26.8553L82.1656 15.3952C82.2111 15.3743 82.2598 15.3648 82.3091 15.3733C82.7672 15.4526 85.4424 16.1509 93.0184 22.1861C96.8268 25.2199 97.5986 26.0208 99.5472 27.2007C99.8554 27.3873 99.8251 27.8328 98.7728 28.7897C95.4182 31.8404 76.6472 42.7914 70.4515 40.5729Z" fill="url(#paint5_linear_6981_10324)"/>
</g>
<g filter="url(#filter12_di_6981_10324)">
<path d="M40.4307 20.35C34.9494 18.9136 33.5597 18.9716 29.8225 18.9428C27.251 18.9231 23.1978 19.5005 22.8098 20.6768C22.4218 21.8531 27.5278 25.2397 29.6232 26.2695C30.6473 26.7729 65.8899 42.3404 64.6967 40.3559C63.2267 37.9108 56.6742 31.0411 54.413 28.2157C50.6431 23.5051 45.912 21.7864 40.4307 20.35Z" fill="url(#paint6_linear_6981_10324)"/>
</g>
<g filter="url(#filter13_di_6981_10324)">
<path d="M28.0304 17.5455L50.2305 7.21777C50.2305 7.21777 49.7315 7.42146 46.9503 7.5158C45.9798 7.54873 22.9439 18.3562 22.7795 18.5156L28.0304 17.5455Z" fill="url(#paint7_linear_6981_10324)"/>
</g>
<g filter="url(#filter14_f_6981_10324)">
<path d="M81.461 52.5049C72.566 48.8846 67.4313 44.0466 61.9654 39.6619C77.7954 43.5296 110.95 52.0657 110.47 52.7496C109.871 53.6045 107.573 54.6958 99.8034 55.6008C92.1545 56.4917 82.4795 52.9194 81.461 52.5049Z" fill="url(#paint8_linear_6981_10324)" fill-opacity="0.21"/>
</g>
<g filter="url(#filter15_f_6981_10324)">
<path d="M114.113 31.5696C113.599 31.1872 107.076 25.053 102.27 22.0751C106.479 29.389 116.035 45.2665 116.846 45.1452C117.86 44.9937 122.478 43.8939 123.697 40.6556C124.896 37.4674 114.756 32.0475 114.113 31.5696Z" fill="url(#paint9_linear_6981_10324)" fill-opacity="0.4"/>
</g>
<g filter="url(#filter16_di_6981_10324)">
<path d="M49.9263 41.8937C49.9205 41.7745 49.8472 41.6689 49.7375 41.622L46.7009 40.3235C46.4899 40.2333 46.2578 40.395 46.269 40.6244L46.2923 41.1038C46.2981 41.2232 46.3717 41.3288 46.4816 41.3756L49.5179 42.6683C49.7288 42.758 49.9605 42.5964 49.9494 42.3672L49.9263 41.8937Z" fill="#323232"/>
</g>
<g filter="url(#filter17_di_6981_10324)">
<path d="M32.9224 35.3556C32.9166 35.2364 32.8433 35.1308 32.7336 35.0839L29.6969 33.7855C29.486 33.6953 29.2539 33.857 29.265 34.0864L29.2884 34.5657C29.2942 34.6851 29.3677 34.7908 29.4776 34.8375L32.514 36.1302C32.7249 36.22 32.9566 36.0583 32.9455 35.8291L32.9224 35.3556Z" fill="#323232"/>
</g>
<g filter="url(#filter18_f_6981_10324)">
<path d="M61.1692 62.2197L32.3093 49.7911C32.1505 49.7227 32.0275 49.5919 31.9698 49.4288C31.0892 46.9391 29.4724 42.1739 29.3939 41.1556C29.2924 39.8377 63.6595 54.1833 62.629 57.2264C62.0968 58.7978 62.062 60.3048 62.1816 61.4006C62.2402 61.9375 61.6653 62.4334 61.1692 62.2197Z" fill="url(#paint10_linear_6981_10324)" fill-opacity="0.5"/>
</g>
<path d="M87.207 35.9434L66.6787 22.464C64.4381 23.1893 59.3837 25.7542 58.4171 26.172C57.1648 26.7133 56.9657 26.9907 56.9657 26.9907C56.9845 27.3759 57.1893 27.5348 57.8378 28.1066C58.7676 28.9263 59.1628 29.3051 61.4988 32.0065C64.863 35.8968 67.4561 39.5426 69.8109 40.3331C71.6843 40.9619 74.5821 41.4506 78.5969 39.9054C82.1855 38.5242 84.3644 37.0548 87.207 35.9434Z" fill="#C4C4C4" fill-opacity="0.2"/>
<g opacity="0.17" filter="url(#filter19_f_6981_10324)">
<path d="M122.918 45.6777C117.724 50.2152 106.005 56.9105 100.685 58.1035" stroke="url(#paint11_linear_6981_10324)" stroke-width="10.2635" stroke-linecap="round" stroke-linejoin="round"/>
</g>
<g filter="url(#filter20_ddii_6981_10324)">
<path d="M127.127 47.0389C128.1 45.5811 127.756 44.4696 127.517 42.7099C127.51 42.662 127.496 42.6113 127.479 42.566C126.961 41.193 129.072 43.9943 129.376 45.9891C129.476 46.6496 129.45 46.9877 129.418 47.6034C129.403 47.885 128.91 49.6241 129.013 49.9894C129.117 50.3546 129.053 52.9097 129.084 53.2938C129.116 53.678 127.649 56.6192 123.563 59.586C120.169 62.0505 115.208 63.8011 114.696 63.9005C114.183 63.9998 113.593 62.293 113.214 62.2156C112.221 62.0129 109.377 63.2179 108.309 63.5424C107.063 63.921 104.155 64.7957 100.918 64.5389C96.9143 64.2214 96.2834 63.7987 92.5286 61.9844C90.149 60.8347 88.3568 58.5166 87.5892 57.092C87.3815 56.7067 87.7191 56.3384 88.1409 56.4556C90.72 57.1723 96.0451 58.7926 101.984 59.111C110.809 59.584 117.542 55.0726 118.506 54.4243C122.561 51.6989 124.709 50.6596 127.127 47.0389Z" fill="#272727"/>
</g>
<mask id="mask0_6981_10324" style="mask-type:alpha" maskUnits="userSpaceOnUse" x="87" y="42" width="43" height="23">
<path d="M127.112 47.0153C127.883 45.8592 127.867 44.5578 127.607 43.4266C127.466 42.8107 128.057 42.4378 128.406 42.9649C129.27 44.2707 129.665 45.397 129.792 46.0228C129.893 46.6831 129.897 47.1054 129.865 47.7211C129.851 48.0027 128.897 49.5993 129.001 49.9645C129.104 50.3297 129.042 52.8848 129.074 53.2689C129.106 53.6531 127.64 56.5952 123.556 59.5646C120.164 62.0313 115.204 63.7851 114.692 63.8848C114.179 63.9845 113.588 62.278 113.209 62.2008C112.216 61.9988 109.373 63.2057 108.305 63.5308C107.06 63.9102 104.152 64.7867 100.915 64.5321C96.9108 64.2171 96.2797 63.7948 92.5237 61.983C90.1433 60.8347 88.3496 58.5178 87.5811 57.0937C87.3732 56.7085 87.7106 56.34 88.1325 56.4569C90.712 57.1719 96.0382 58.7889 101.978 59.1034C110.803 59.5708 117.533 55.0551 118.497 54.4062C122.549 51.6782 124.697 50.6375 127.112 47.0153Z" fill="#999999"/>
</mask>
<g mask="url(#mask0_6981_10324)">
<g filter="url(#filter21_d_6981_10324)">
<path d="M93.848 57.3437L105.673 56.9467C105.673 56.949 105.674 56.9513 105.675 56.9537C105.713 57.0469 105.761 57.1825 105.804 57.3485C105.889 57.6822 105.948 58.1286 105.856 58.5979C105.764 59.0622 105.522 59.5587 104.988 60.0005C104.451 60.4455 103.606 60.8441 102.296 61.0853C101.517 61.2286 100.433 61.2775 99.3094 61.1203C98.1849 60.9631 97.0375 60.602 96.1181 59.9394C95.621 59.5811 94.9969 58.8561 94.4855 58.1997C94.2328 57.8753 94.0125 57.5743 93.8555 57.3542C93.8529 57.3507 93.8505 57.3472 93.848 57.3437Z" stroke="#BCBCBC" stroke-opacity="0.9" stroke-width="0.462772"/>
</g>
</g>
</g>
<defs>
<filter id="filter0_f_6981_10324" x="5.6391" y="27.5461" width="128.793" height="56.3514" filterUnits="userSpaceOnUse" color-interpolation-filters="sRGB">
<feFlood flood-opacity="0" result="BackgroundImageFix"/>
<feBlend mode="normal" in="SourceGraphic" in2="BackgroundImageFix" result="shape"/>
<feGaussianBlur stdDeviation="0.695222" result="effect1_foregroundBlur_6981_10324"/>
</filter>
<filter id="filter1_i_6981_10324" x="64.8027" y="56.5315" width="12.51" height="16.8506" filterUnits="userSpaceOnUse" color-interpolation-filters="sRGB">
<feFlood flood-opacity="0" result="BackgroundImageFix"/>
<feBlend mode="normal" in="SourceGraphic" in2="BackgroundImageFix" result="shape"/>
<feColorMatrix in="SourceAlpha" type="matrix" values="0 0 0 0 0 0 0 0 0 0 0 0 0 0 0 0 0 0 127 0" result="hardAlpha"/>
<feMorphology radius="0.155508" operator="erode" in="SourceAlpha" result="effect1_innerShadow_6981_10324"/>
<feOffset/>
<feGaussianBlur stdDeviation="0.0777541"/>
<feComposite in2="hardAlpha" operator="arithmetic" k2="-1" k3="1"/>
<feColorMatrix type="matrix" values="0 0 0 0 0 0 0 0 0 0 0 0 0 0 0 0 0 0 0.25 0"/>
<feBlend mode="normal" in2="shape" result="effect1_innerShadow_6981_10324"/>
</filter>
<filter id="filter2_di_6981_10324" x="65.395" y="57.9225" width="10.9546" height="14.3455" filterUnits="userSpaceOnUse" color-interpolation-filters="sRGB">
<feFlood flood-opacity="0" result="BackgroundImageFix"/>
<feColorMatrix in="SourceAlpha" type="matrix" values="0 0 0 0 0 0 0 0 0 0 0 0 0 0 0 0 0 0 127 0" result="hardAlpha"/>
<feOffset dy="0.0622032"/>
<feGaussianBlur stdDeviation="0.0466524"/>
<feColorMatrix type="matrix" values="0 0 0 0 1 0 0 0 0 1 0 0 0 0 1 0 0 0 0.41 0"/>
<feBlend mode="normal" in2="BackgroundImageFix" result="effect1_dropShadow_6981_10324"/>
<feBlend mode="normal" in="SourceGraphic" in2="effect1_dropShadow_6981_10324" result="shape"/>
<feColorMatrix in="SourceAlpha" type="matrix" values="0 0 0 0 0 0 0 0 0 0 0 0 0 0 0 0 0 0 127 0" result="hardAlpha"/>
<feOffset dx="-0.466524" dy="0.311016"/>
<feGaussianBlur stdDeviation="0.233262"/>
<feComposite in2="hardAlpha" operator="arithmetic" k2="-1" k3="1"/>
<feColorMatrix type="matrix" values="0 0 0 0 0 0 0 0 0 0 0 0 0 0 0 0 0 0 0.25 0"/>
<feBlend mode="normal" in2="shape" result="effect2_innerShadow_6981_10324"/>
</filter>
<filter id="filter3_i_6981_10324" x="65.2644" y="56.7825" width="11.6892" height="16.3386" filterUnits="userSpaceOnUse" color-interpolation-filters="sRGB">
<feFlood flood-opacity="0" result="BackgroundImageFix"/>
<feBlend mode="normal" in="SourceGraphic" in2="BackgroundImageFix" result="shape"/>
<feColorMatrix in="SourceAlpha" type="matrix" values="0 0 0 0 0 0 0 0 0 0 0 0 0 0 0 0 0 0 127 0" result="hardAlpha"/>
<feMorphology radius="0.385643" operator="erode" in="SourceAlpha" result="effect1_innerShadow_6981_10324"/>
<feOffset/>
<feGaussianBlur stdDeviation="0.192821"/>
<feComposite in2="hardAlpha" operator="arithmetic" k2="-1" k3="1"/>
<feColorMatrix type="matrix" values="0 0 0 0 0 0 0 0 0 0 0 0 0 0 0 0 0 0 0.25 0"/>
<feBlend mode="normal" in2="shape" result="effect1_innerShadow_6981_10324"/>
</filter>
<filter id="filter4_di_6981_10324" x="66.2841" y="58.8663" width="9.31068" height="12.4567" filterUnits="userSpaceOnUse" color-interpolation-filters="sRGB">
<feFlood flood-opacity="0" result="BackgroundImageFix"/>
<feColorMatrix in="SourceAlpha" type="matrix" values="0 0 0 0 0 0 0 0 0 0 0 0 0 0 0 0 0 0 127 0" result="hardAlpha"/>
<feOffset dy="0.13152"/>
<feGaussianBlur stdDeviation="0.0822002"/>
<feColorMatrix type="matrix" values="0 0 0 0 1 0 0 0 0 1 0 0 0 0 1 0 0 0 0.59 0"/>
<feBlend mode="normal" in2="BackgroundImageFix" result="effect1_dropShadow_6981_10324"/>
<feBlend mode="normal" in="SourceGraphic" in2="effect1_dropShadow_6981_10324" result="shape"/>
<feColorMatrix in="SourceAlpha" type="matrix" values="0 0 0 0 0 0 0 0 0 0 0 0 0 0 0 0 0 0 127 0" result="hardAlpha"/>
<feOffset dx="-0.493201" dy="0.328801"/>
<feGaussianBlur stdDeviation="0.246601"/>
<feComposite in2="hardAlpha" operator="arithmetic" k2="-1" k3="1"/>
<feColorMatrix type="matrix" values="0 0 0 0 0 0 0 0 0 0 0 0 0 0 0 0 0 0 0.25 0"/>
<feBlend mode="normal" in2="shape" result="effect2_innerShadow_6981_10324"/>
</filter>
<filter id="filter5_i_6981_10324" x="17.6138" y="36.022" width="9.42395" height="14.5469" filterUnits="userSpaceOnUse" color-interpolation-filters="sRGB">
<feFlood flood-opacity="0" result="BackgroundImageFix"/>
<feBlend mode="normal" in="SourceGraphic" in2="BackgroundImageFix" result="shape"/>
<feColorMatrix in="SourceAlpha" type="matrix" values="0 0 0 0 0 0 0 0 0 0 0 0 0 0 0 0 0 0 127 0" result="hardAlpha"/>
<feMorphology radius="0.128421" operator="erode" in="SourceAlpha" result="effect1_innerShadow_6981_10324"/>
<feOffset/>
<feGaussianBlur stdDeviation="0.0642103"/>
<feComposite in2="hardAlpha" operator="arithmetic" k2="-1" k3="1"/>
<feColorMatrix type="matrix" values="0 0 0 0 0 0 0 0 0 0 0 0 0 0 0 0 0 0 0.25 0"/>
<feBlend mode="normal" in2="shape" result="effect1_innerShadow_6981_10324"/>
</filter>
<filter id="filter6_di_6981_10324" x="18.0189" y="37.2253" width="8.29386" height="12.3714" filterUnits="userSpaceOnUse" color-interpolation-filters="sRGB">
<feFlood flood-opacity="0" result="BackgroundImageFix"/>
<feColorMatrix in="SourceAlpha" type="matrix" values="0 0 0 0 0 0 0 0 0 0 0 0 0 0 0 0 0 0 127 0" result="hardAlpha"/>
<feOffset dy="0.0513682"/>
<feGaussianBlur stdDeviation="0.0385262"/>
<feColorMatrix type="matrix" values="0 0 0 0 1 0 0 0 0 1 0 0 0 0 1 0 0 0 0.41 0"/>
<feBlend mode="normal" in2="BackgroundImageFix" result="effect1_dropShadow_6981_10324"/>
<feBlend mode="normal" in="SourceGraphic" in2="effect1_dropShadow_6981_10324" result="shape"/>
<feColorMatrix in="SourceAlpha" type="matrix" values="0 0 0 0 0 0 0 0 0 0 0 0 0 0 0 0 0 0 127 0" result="hardAlpha"/>
<feOffset dx="-0.385262" dy="0.256841"/>
<feGaussianBlur stdDeviation="0.192631"/>
<feComposite in2="hardAlpha" operator="arithmetic" k2="-1" k3="1"/>
<feColorMatrix type="matrix" values="0 0 0 0 0 0 0 0 0 0 0 0 0 0 0 0 0 0 0.25 0"/>
<feBlend mode="normal" in2="shape" result="effect2_innerShadow_6981_10324"/>
</filter>
<filter id="filter7_i_6981_10324" x="17.5238" y="37.1201" width="9.25464" height="13.7981" filterUnits="userSpaceOnUse" color-interpolation-filters="sRGB">
<feFlood flood-opacity="0" result="BackgroundImageFix"/>
<feBlend mode="normal" in="SourceGraphic" in2="BackgroundImageFix" result="shape"/>
<feColorMatrix in="SourceAlpha" type="matrix" values="0 0 0 0 0 0 0 0 0 0 0 0 0 0 0 0 0 0 127 0" result="hardAlpha"/>
<feMorphology radius="0.385643" operator="erode" in="SourceAlpha" result="effect1_innerShadow_6981_10324"/>
<feOffset/>
<feGaussianBlur stdDeviation="0.192821"/>
<feComposite in2="hardAlpha" operator="arithmetic" k2="-1" k3="1"/>
<feColorMatrix type="matrix" values="0 0 0 0 0 0 0 0 0 0 0 0 0 0 0 0 0 0 0.25 0"/>
<feBlend mode="normal" in2="shape" result="effect1_innerShadow_6981_10324"/>
</filter>
<filter id="filter8_i_6981_10324" x="17.5238" y="37.1201" width="9.25464" height="13.7981" filterUnits="userSpaceOnUse" color-interpolation-filters="sRGB">
<feFlood flood-opacity="0" result="BackgroundImageFix"/>
<feBlend mode="normal" in="SourceGraphic" in2="BackgroundImageFix" result="shape"/>
<feColorMatrix in="SourceAlpha" type="matrix" values="0 0 0 0 0 0 0 0 0 0 0 0 0 0 0 0 0 0 127 0" result="hardAlpha"/>
<feMorphology radius="0.115577" operator="erode" in="SourceAlpha" result="effect1_innerShadow_6981_10324"/>
<feOffset/>
<feGaussianBlur stdDeviation="0.0577885"/>
<feComposite in2="hardAlpha" operator="arithmetic" k2="-1" k3="1"/>
<feColorMatrix type="matrix" values="0 0 0 0 0 0 0 0 0 0 0 0 0 0 0 0 0 0 0.25 0"/>
<feBlend mode="normal" in2="shape" result="effect1_innerShadow_6981_10324"/>
</filter>
<filter id="filter9_di_6981_10324" x="18.1938" y="38.8294" width="7.35841" height="10.6783" filterUnits="userSpaceOnUse" color-interpolation-filters="sRGB">
<feFlood flood-opacity="0" result="BackgroundImageFix"/>
<feColorMatrix in="SourceAlpha" type="matrix" values="0 0 0 0 0 0 0 0 0 0 0 0 0 0 0 0 0 0 127 0" result="hardAlpha"/>
<feOffset dy="0.13152"/>
<feGaussianBlur stdDeviation="0.0822002"/>
<feColorMatrix type="matrix" values="0 0 0 0 1 0 0 0 0 1 0 0 0 0 1 0 0 0 0.59 0"/>
<feBlend mode="normal" in2="BackgroundImageFix" result="effect1_dropShadow_6981_10324"/>
<feBlend mode="normal" in="SourceGraphic" in2="effect1_dropShadow_6981_10324" result="shape"/>
<feColorMatrix in="SourceAlpha" type="matrix" values="0 0 0 0 0 0 0 0 0 0 0 0 0 0 0 0 0 0 127 0" result="hardAlpha"/>
<feOffset dx="-0.493201" dy="0.328801"/>
<feGaussianBlur stdDeviation="0.246601"/>
<feComposite in2="hardAlpha" operator="arithmetic" k2="-1" k3="1"/>
<feColorMatrix type="matrix" values="0 0 0 0 0 0 0 0 0 0 0 0 0 0 0 0 0 0 0.25 0"/>
<feBlend mode="normal" in2="shape" result="effect2_innerShadow_6981_10324"/>
</filter>
<filter id="filter10_ii_6981_10324" x="11.1277" y="2.49762" width="119.974" height="73.6772" filterUnits="userSpaceOnUse" color-interpolation-filters="sRGB">
<feFlood flood-opacity="0" result="BackgroundImageFix"/>
<feBlend mode="normal" in="SourceGraphic" in2="BackgroundImageFix" result="shape"/>
<feColorMatrix in="SourceAlpha" type="matrix" values="0 0 0 0 0 0 0 0 0 0 0 0 0 0 0 0 0 0 127 0" result="hardAlpha"/>
<feOffset dx="2.31386" dy="-3.08514"/>
<feGaussianBlur stdDeviation="9.25543"/>
<feComposite in2="hardAlpha" operator="arithmetic" k2="-1" k3="1"/>
<feColorMatrix type="matrix" values="0 0 0 0 0 0 0 0 0 0 0 0 0 0 0 0 0 0 0.07 0"/>
<feBlend mode="normal" in2="shape" result="effect1_innerShadow_6981_10324"/>
<feColorMatrix in="SourceAlpha" type="matrix" values="0 0 0 0 0 0 0 0 0 0 0 0 0 0 0 0 0 0 127 0" result="hardAlpha"/>
<feOffset dy="-0.385643"/>
<feGaussianBlur stdDeviation="0.771286"/>
<feComposite in2="hardAlpha" operator="arithmetic" k2="-1" k3="1"/>
<feColorMatrix type="matrix" values="0 0 0 0 0 0 0 0 0 0 0 0 0 0 0 0 0 0 0.09 0"/>
<feBlend mode="normal" in2="effect1_innerShadow_6981_10324" result="effect2_innerShadow_6981_10324"/>
</filter>
<filter id="filter11_ddi_6981_10324" x="56.4117" y="14.9036" width="43.6166" height="26.4301" filterUnits="userSpaceOnUse" color-interpolation-filters="sRGB">
<feFlood flood-opacity="0" result="BackgroundImageFix"/>
<feColorMatrix in="SourceAlpha" type="matrix" values="0 0 0 0 0 0 0 0 0 0 0 0 0 0 0 0 0 0 127 0" result="hardAlpha"/>
<feOffset dx="-0.311016" dy="0.155508"/>
<feGaussianBlur stdDeviation="0.155508"/>
<feColorMatrix type="matrix" values="0 0 0 0 1 0 0 0 0 1 0 0 0 0 1 0 0 0 0.28 0"/>
<feBlend mode="normal" in2="BackgroundImageFix" result="effect1_dropShadow_6981_10324"/>
<feColorMatrix in="SourceAlpha" type="matrix" values="0 0 0 0 0 0 0 0 0 0 0 0 0 0 0 0 0 0 127 0" result="hardAlpha"/>
<feOffset dy="-0.155508"/>
<feGaussianBlur stdDeviation="0.155508"/>
<feColorMatrix type="matrix" values="0 0 0 0 1 0 0 0 0 1 0 0 0 0 1 0 0 0 0.56 0"/>
<feBlend mode="normal" in2="effect1_dropShadow_6981_10324" result="effect2_dropShadow_6981_10324"/>
<feBlend mode="normal" in="SourceGraphic" in2="effect2_dropShadow_6981_10324" result="shape"/>
<feColorMatrix in="SourceAlpha" type="matrix" values="0 0 0 0 0 0 0 0 0 0 0 0 0 0 0 0 0 0 127 0" result="hardAlpha"/>
<feOffset dx="-0.155508" dy="0.466524"/>
<feGaussianBlur stdDeviation="0.233262"/>
<feComposite in2="hardAlpha" operator="arithmetic" k2="-1" k3="1"/>
<feColorMatrix type="matrix" values="0 0 0 0 0 0 0 0 0 0 0 0 0 0 0 0 0 0 0.75 0"/>
<feBlend mode="normal" in2="shape" result="effect3_innerShadow_6981_10324"/>
</filter>
<filter id="filter12_di_6981_10324" x="22.1668" y="18.9424" width="42.7203" height="22.2102" filterUnits="userSpaceOnUse" color-interpolation-filters="sRGB">
<feFlood flood-opacity="0" result="BackgroundImageFix"/>
<feColorMatrix in="SourceAlpha" type="matrix" values="0 0 0 0 0 0 0 0 0 0 0 0 0 0 0 0 0 0 127 0" result="hardAlpha"/>
<feOffset dy="0.160816"/>
<feGaussianBlur stdDeviation="0.0804078"/>
<feColorMatrix type="matrix" values="0 0 0 0 0.925374 0 0 0 0 0.925374 0 0 0 0 0.925374 0 0 0 0.37 0"/>
<feBlend mode="normal" in2="BackgroundImageFix" result="effect1_dropShadow_6981_10324"/>
<feBlend mode="normal" in="SourceGraphic" in2="effect1_dropShadow_6981_10324" result="shape"/>
<feColorMatrix in="SourceAlpha" type="matrix" values="0 0 0 0 0 0 0 0 0 0 0 0 0 0 0 0 0 0 127 0" result="hardAlpha"/>
<feOffset dx="-0.622032" dy="0.77754"/>
<feGaussianBlur stdDeviation="0.311016"/>
<feComposite in2="hardAlpha" operator="arithmetic" k2="-1" k3="1"/>
<feColorMatrix type="matrix" values="0 0 0 0 0 0 0 0 0 0 0 0 0 0 0 0 0 0 0.8 0"/>
<feBlend mode="normal" in2="shape" result="effect2_innerShadow_6981_10324"/>
</filter>
<filter id="filter13_di_6981_10324" x="22.1575" y="7.21777" width="28.2338" height="11.9199" filterUnits="userSpaceOnUse" color-interpolation-filters="sRGB">
<feFlood flood-opacity="0" result="BackgroundImageFix"/>
<feColorMatrix in="SourceAlpha" type="matrix" values="0 0 0 0 0 0 0 0 0 0 0 0 0 0 0 0 0 0 127 0" result="hardAlpha"/>
<feOffset dy="0.160816"/>
<feGaussianBlur stdDeviation="0.0804078"/>
<feColorMatrix type="matrix" values="0 0 0 0 0.925374 0 0 0 0 0.925374 0 0 0 0 0.925374 0 0 0 0.37 0"/>
<feBlend mode="normal" in2="BackgroundImageFix" result="effect1_dropShadow_6981_10324"/>
<feBlend mode="normal" in="SourceGraphic" in2="effect1_dropShadow_6981_10324" result="shape"/>
<feColorMatrix in="SourceAlpha" type="matrix" values="0 0 0 0 0 0 0 0 0 0 0 0 0 0 0 0 0 0 127 0" result="hardAlpha"/>
<feOffset dx="-0.622032" dy="0.77754"/>
<feGaussianBlur stdDeviation="0.311016"/>
<feComposite in2="hardAlpha" operator="arithmetic" k2="-1" k3="1"/>
<feColorMatrix type="matrix" values="0 0 0 0 0 0 0 0 0 0 0 0 0 0 0 0 0 0 0.8 0"/>
<feBlend mode="normal" in2="shape" result="effect2_innerShadow_6981_10324"/>
</filter>
<filter id="filter14_f_6981_10324" x="57.6111" y="35.3076" width="57.2187" height="24.7895" filterUnits="userSpaceOnUse" color-interpolation-filters="sRGB">
<feFlood flood-opacity="0" result="BackgroundImageFix"/>
<feBlend mode="normal" in="SourceGraphic" in2="BackgroundImageFix" result="shape"/>
<feGaussianBlur stdDeviation="2.17711" result="effect1_foregroundBlur_6981_10324"/>
</filter>
<filter id="filter15_f_6981_10324" x="99.4709" y="19.276" width="27.1237" height="28.6691" filterUnits="userSpaceOnUse" color-interpolation-filters="sRGB">
<feFlood flood-opacity="0" result="BackgroundImageFix"/>
<feBlend mode="normal" in="SourceGraphic" in2="BackgroundImageFix" result="shape"/>
<feGaussianBlur stdDeviation="1.39957" result="effect1_foregroundBlur_6981_10324"/>
</filter>
<filter id="filter16_di_6981_10324" x="46.1914" y="40.1438" width="3.83541" height="2.93516" filterUnits="userSpaceOnUse" color-interpolation-filters="sRGB">
<feFlood flood-opacity="0" result="BackgroundImageFix"/>
<feColorMatrix in="SourceAlpha" type="matrix" values="0 0 0 0 0 0 0 0 0 0 0 0 0 0 0 0 0 0 127 0" result="hardAlpha"/>
<feOffset dy="-0.0771286"/>
<feGaussianBlur stdDeviation="0.0385643"/>
<feColorMatrix type="matrix" values="0 0 0 0 0.78755 0 0 0 0 0.78755 0 0 0 0 0.78755 0 0 0 0.19 0"/>
<feBlend mode="normal" in2="BackgroundImageFix" result="effect1_dropShadow_6981_10324"/>
<feBlend mode="normal" in="SourceGraphic" in2="effect1_dropShadow_6981_10324" result="shape"/>
<feColorMatrix in="SourceAlpha" type="matrix" values="0 0 0 0 0 0 0 0 0 0 0 0 0 0 0 0 0 0 127 0" result="hardAlpha"/>
<feOffset dy="0.385643"/>
<feGaussianBlur stdDeviation="0.192821"/>
<feComposite in2="hardAlpha" operator="arithmetic" k2="-1" k3="1"/>
<feColorMatrix type="matrix" values="0 0 0 0 0 0 0 0 0 0 0 0 0 0 0 0 0 0 0.74 0"/>
<feBlend mode="normal" in2="shape" result="effect2_innerShadow_6981_10324"/>
</filter>
<filter id="filter17_di_6981_10324" x="29.1875" y="33.6058" width="3.83541" height="2.93516" filterUnits="userSpaceOnUse" color-interpolation-filters="sRGB">
<feFlood flood-opacity="0" result="BackgroundImageFix"/>
<feColorMatrix in="SourceAlpha" type="matrix" values="0 0 0 0 0 0 0 0 0 0 0 0 0 0 0 0 0 0 127 0" result="hardAlpha"/>
<feOffset dy="-0.0771286"/>
<feGaussianBlur stdDeviation="0.0385643"/>
<feColorMatrix type="matrix" values="0 0 0 0 0.78755 0 0 0 0 0.78755 0 0 0 0 0.78755 0 0 0 0.19 0"/>
<feBlend mode="normal" in2="BackgroundImageFix" result="effect1_dropShadow_6981_10324"/>
<feBlend mode="normal" in="SourceGraphic" in2="effect1_dropShadow_6981_10324" result="shape"/>
<feColorMatrix in="SourceAlpha" type="matrix" values="0 0 0 0 0 0 0 0 0 0 0 0 0 0 0 0 0 0 127 0" result="hardAlpha"/>
<feOffset dy="0.385643"/>
<feGaussianBlur stdDeviation="0.192821"/>
<feComposite in2="hardAlpha" operator="arithmetic" k2="-1" k3="1"/>
<feColorMatrix type="matrix" values="0 0 0 0 0 0 0 0 0 0 0 0 0 0 0 0 0 0 0.74 0"/>
<feBlend mode="normal" in2="shape" result="effect2_innerShadow_6981_10324"/>
</filter>
<filter id="filter18_f_6981_10324" x="28.4606" y="40.1373" width="35.124" height="23.0663" filterUnits="userSpaceOnUse" color-interpolation-filters="sRGB">
<feFlood flood-opacity="0" result="BackgroundImageFix"/>
<feBlend mode="normal" in="SourceGraphic" in2="BackgroundImageFix" result="shape"/>
<feGaussianBlur stdDeviation="0.466524" result="effect1_foregroundBlur_6981_10324"/>
</filter>
<filter id="filter19_f_6981_10324" x="93.9972" y="38.9908" width="35.6077" height="25.8006" filterUnits="userSpaceOnUse" color-interpolation-filters="sRGB">
<feFlood flood-opacity="0" result="BackgroundImageFix"/>
<feBlend mode="normal" in="SourceGraphic" in2="BackgroundImageFix" result="shape"/>
<feGaussianBlur stdDeviation="0.77754" result="effect1_foregroundBlur_6981_10324"/>
</filter>
<filter id="filter20_ddii_6981_10324" x="87.3326" y="41.9108" width="42.3078" height="24.0088" filterUnits="userSpaceOnUse" color-interpolation-filters="sRGB">
<feFlood flood-opacity="0" result="BackgroundImageFix"/>
<feColorMatrix in="SourceAlpha" type="matrix" values="0 0 0 0 0 0 0 0 0 0 0 0 0 0 0 0 0 0 127 0" result="hardAlpha"/>
<feOffset dy="0.145164"/>
<feGaussianBlur stdDeviation="0.096776"/>
<feColorMatrix type="matrix" values="0 0 0 0 0 0 0 0 0 0 0 0 0 0 0 0 0 0 0.57 0"/>
<feBlend mode="normal" in2="BackgroundImageFix" result="effect1_dropShadow_6981_10324"/>
<feColorMatrix in="SourceAlpha" type="matrix" values="0 0 0 0 0 0 0 0 0 0 0 0 0 0 0 0 0 0 127 0" result="hardAlpha"/>
<feOffset dy="-0.096776"/>
<feGaussianBlur stdDeviation="0.096776"/>
<feColorMatrix type="matrix" values="0 0 0 0 0 0 0 0 0 0 0 0 0 0 0 0 0 0 1 0"/>
<feBlend mode="normal" in2="effect1_dropShadow_6981_10324" result="effect2_dropShadow_6981_10324"/>
<feBlend mode="normal" in="SourceGraphic" in2="effect2_dropShadow_6981_10324" result="shape"/>
<feColorMatrix in="SourceAlpha" type="matrix" values="0 0 0 0 0 0 0 0 0 0 0 0 0 0 0 0 0 0 127 0" result="hardAlpha"/>
<feOffset dy="1.33417"/>
<feGaussianBlur stdDeviation="1.35966"/>
<feComposite in2="hardAlpha" operator="arithmetic" k2="-1" k3="1"/>
<feColorMatrix type="matrix" values="0 0 0 0 0 0 0 0 0 0 0 0 0 0 0 0 0 0 1 0"/>
<feBlend mode="normal" in2="shape" result="effect3_innerShadow_6981_10324"/>
<feColorMatrix in="SourceAlpha" type="matrix" values="0 0 0 0 0 0 0 0 0 0 0 0 0 0 0 0 0 0 127 0" result="hardAlpha"/>
<feOffset dy="-0.145385"/>
<feGaussianBlur stdDeviation="0.145385"/>
<feComposite in2="hardAlpha" operator="arithmetic" k2="-1" k3="1"/>
<feColorMatrix type="matrix" values="0 0 0 0 0 0 0 0 0 0 0 0 0 0 0 0 0 0 1 0"/>
<feBlend mode="normal" in2="effect3_innerShadow_6981_10324" result="effect4_innerShadow_6981_10324"/>
</filter>
<filter id="filter21_d_6981_10324" x="93.3767" y="56.7102" width="13.103" height="5.122" filterUnits="userSpaceOnUse" color-interpolation-filters="sRGB">
<feFlood flood-opacity="0" result="BackgroundImageFix"/>
<feColorMatrix in="SourceAlpha" type="matrix" values="0 0 0 0 0 0 0 0 0 0 0 0 0 0 0 0 0 0 127 0" result="hardAlpha"/>
<feOffset dx="0.154257" dy="0.191616"/>
<feGaussianBlur stdDeviation="0.0958082"/>
<feColorMatrix type="matrix" values="0 0 0 0 1 0 0 0 0 1 0 0 0 0 1 0 0 0 0.24 0"/>
<feBlend mode="normal" in2="BackgroundImageFix" result="effect1_dropShadow_6981_10324"/>
<feBlend mode="normal" in="SourceGraphic" in2="effect1_dropShadow_6981_10324" result="shape"/>
</filter>
<linearGradient id="paint0_linear_6981_10324" x1="12.5508" y1="13.7893" x2="13.1758" y2="4.49321" gradientUnits="userSpaceOnUse">
<stop stop-color="#1E1919"/>
<stop offset="1" stop-color="#5C5C5C"/>
</linearGradient>
<linearGradient id="paint1_linear_6981_10324" x1="11.7626" y1="13.2982" x2="12.3827" y2="4.33555" gradientUnits="userSpaceOnUse">
<stop stop-color="#AEACAC"/>
<stop offset="1" stop-color="#C2C2C2"/>
</linearGradient>
<linearGradient id="paint2_linear_6981_10324" x1="10.3656" y1="11.3864" x2="10.8816" y2="3.71021" gradientUnits="userSpaceOnUse">
<stop stop-color="#1E1919"/>
<stop offset="1" stop-color="#5C5C5C"/>
</linearGradient>
<linearGradient id="paint3_linear_6981_10324" x1="9.72443" y1="10.9941" x2="10.2371" y2="3.58437" gradientUnits="userSpaceOnUse">
<stop stop-color="#AEACAC"/>
<stop offset="1" stop-color="#C2C2C2"/>
</linearGradient>
<linearGradient id="paint4_linear_6981_10324" x1="78.8273" y1="73.7357" x2="128.908" y2="6.27454" gradientUnits="userSpaceOnUse">
<stop/>
<stop offset="1" stop-color="#969696"/>
</linearGradient>
<linearGradient id="paint5_linear_6981_10324" x1="81.4163" y1="-6.64859" x2="52.4813" y2="23.5229" gradientUnits="userSpaceOnUse">
<stop stop-color="#0D0D0D"/>
<stop offset="0.498386" stop-color="#707072"/>
<stop offset="1" stop-color="#2F3032"/>
</linearGradient>
<linearGradient id="paint6_linear_6981_10324" x1="36.2971" y1="91.9084" x2="62.6983" y2="37.5418" gradientUnits="userSpaceOnUse">
<stop stop-color="#2C2D2C"/>
<stop offset="0.498386" stop-color="#707072"/>
<stop offset="1" stop-color="#2F3032"/>
</linearGradient>
<linearGradient id="paint7_linear_6981_10324" x1="21.2753" y1="37.7787" x2="36.2826" y2="13.3474" gradientUnits="userSpaceOnUse">
<stop stop-color="#383838"/>
<stop offset="0.498386" stop-color="#707072"/>
<stop offset="1" stop-color="#2F3032"/>
</linearGradient>
<linearGradient id="paint8_linear_6981_10324" x1="85.1833" y1="57.3912" x2="88.4125" y2="46.204" gradientUnits="userSpaceOnUse">
<stop stop-color="#A2A0A0"/>
<stop offset="1" stop-color="white" stop-opacity="0"/>
</linearGradient>
<linearGradient id="paint9_linear_6981_10324" x1="127.006" y1="35.705" x2="113.044" y2="41.3526" gradientUnits="userSpaceOnUse">
<stop stop-color="#51524D"/>
<stop offset="1" stop-color="white" stop-opacity="0"/>
</linearGradient>
<linearGradient id="paint10_linear_6981_10324" x1="51.4992" y1="60.9204" x2="55.3303" y2="51.6213" gradientUnits="userSpaceOnUse">
<stop stop-color="#040404"/>
<stop offset="1" stop-color="#3C3C3C" stop-opacity="0"/>
</linearGradient>
<linearGradient id="paint11_linear_6981_10324" x1="112.421" y1="57.4118" x2="109.642" y2="52.5998" gradientUnits="userSpaceOnUse">
<stop stop-color="#232222"/>
<stop offset="0.899322" stop-opacity="0"/>
</linearGradient>
<clipPath id="clip0_6981_10324">
<rect width="142" height="83" fill="white"/>
</clipPath>
</defs>
</svg>
